<?xml version="1.0" encoding="UTF-8"?>
<svg width="263px" height="124px" viewBox="0 0 263 124" version="1.1" xmlns="http://www.w3.org/2000/svg" xmlns:xlink="http://www.w3.org/1999/xlink">
    <!-- Generator: Sketch 58 (84663) - https://sketch.com -->
    <title>Artboard</title>
    <desc>Created with Sketch.</desc>
    <g id="Artboard" stroke="none" stroke-width="1" fill="none" fill-rule="evenodd">
        <g id="Group" fill-rule="nonzero">
            <path d="M3.5,72 L3.5,2 L33.3,2 C37.366687,2 41.0833165,2.899991 44.45,4.7 C47.8166835,6.5 50.49999,9.0166505 52.5,12.25 C54.50001,15.4833495 55.5,19.266645 55.5,23.6 C55.5,27.733354 54.5500095,31.4166505 52.65,34.65 C50.7499905,37.8833495 48.100017,40.4166575 44.7,42.25 C41.299983,44.0833425 37.300023,45 32.7,45 L6,45 L6,72 L3.5,72 Z M6,42.7 L32.5,42.7 C36.300019,42.7 39.7499845,41.9500075 42.85,40.45 C45.9500155,38.9499925 48.4166575,36.766681 50.25,33.9 C52.0833425,31.033319 53,27.60002 53,23.6 C53,19.533313 52.0833425,16.066681 50.25,13.2 C48.4166575,10.333319 45.966682,8.133341 42.9,6.6 C39.833318,5.066659 36.500018,4.3 32.9,4.3 L6,4.3 L6,42.7 Z M94.1,72 C88.833307,72 84.033355,71.0500095 79.7,69.15 C75.366645,67.2499905 71.9166795,64.4166855 69.35,60.65 C66.7833205,56.8833145 65.5,52.166695 65.5,46.5 C65.5,41.899977 66.433324,37.566687 68.3,33.5 C70.166676,29.433313 72.8499825,26.133346 76.35,23.6 C79.8500175,21.066654 84.066642,19.8 89,19.8 C93.533356,19.8 97.499983,20.833323 100.9,22.9 C104.300017,24.966677 106.933324,27.766649 108.8,31.3 C110.666676,34.833351 111.6,38.833311 111.6,43.3 C111.6,44.033337 111.583334,44.7499965 111.55,45.45 C111.516667,46.1500035 111.433334,46.866663 111.3,47.6 L68.1,47.6 C68.1,52.400024 69.2833215,56.4499835 71.65,59.75 C74.0166785,63.0500165 77.1166475,65.533325 80.95,67.2 C84.7833525,68.866675 88.899978,69.7 93.3,69.7 L105.3,69.7 L105.3,72 L94.1,72 Z M68.1,45.3 L108.9,45.3 C109.033334,43.96666 109.000001,42.3166765 108.8,40.35 C108.6,38.3833235 108.11667,36.3500105 107.35,34.25 C106.583329,32.1499895 105.433341,30.1833425 103.9,28.35 C102.366659,26.5166575 100.366679,25.0166725 97.9,23.85 C95.433321,22.6833275 92.366685,22.1 88.7,22.1 C85.499984,22.1 82.633346,22.7833265 80.1,24.15 C77.566654,25.5166735 75.400009,27.333322 73.6,29.6 C71.799991,31.866678 70.433338,34.366653 69.5,37.1 C68.566662,39.833347 68.1,42.566653 68.1,45.3 Z M126.1,72 L126.1,42.1 C126.1,37.099975 127.183323,32.9500165 129.35,29.65 C131.516678,26.3499835 134.299983,23.866675 137.7,22.2 C141.100017,20.533325 144.633315,19.7 148.3,19.7 C152.033352,19.7 155.583317,20.533325 158.95,22.2 C162.316684,23.866675 165.083323,26.3499835 167.25,29.65 C169.416677,32.9500165 170.5,37.099975 170.5,42.1 L170.5,72 L168,72 L168,42.5 C168,37.966644 167.05001,34.1833485 165.15,31.15 C163.249991,28.1166515 160.783349,25.833341 157.75,24.3 C154.716652,22.766659 151.53335,22 148.2,22 C144.933317,22 141.800015,22.7499925 138.8,24.25 C135.799985,25.7500075 133.350009,28.0166515 131.45,31.05 C129.54999,34.0833485 128.6,37.899977 128.6,42.5 L128.6,72 L126.1,72 Z M245.8,93.6 C242.533317,93.6 239.650013,92.9166735 237.15,91.55 C234.649988,90.1833265 232.700007,88.366678 231.3,86.1 C229.899993,83.833322 229.2,81.333347 229.2,78.6 C229.2,76.466656 229.683329,74.466676 230.65,72.6 C231.616672,70.733324 232.883326,69.1166735 234.45,67.75 C236.016675,66.3833265 237.699991,65.400003 239.5,64.8 L239.05,64.35 C238.95,64.2499995 238.833334,64.166667 238.7,64.1 L234.5,60.6 C232.633324,63.26668 230.383347,65.5499905 227.75,67.45 C225.116654,69.3500095 222.200016,70.7833285 219,71.75 C215.799984,72.7166715 212.366685,73.2 208.7,73.2 C203.099972,73.2 198.283354,72.20001 194.25,70.2 C190.216646,68.2 187.100011,65.4166845 184.9,61.85 C182.699989,58.2833155 181.6,54.16669 181.6,49.5 C181.6,46.366651 182.166661,43.4166805 183.3,40.65 C184.433339,37.8833195 186.04999,35.4166775 188.15,33.25 C190.250011,31.0833225 192.699986,29.266674 195.5,27.8 C194.566662,26.866662 193.750004,25.833339 193.05,24.7 C192.349997,23.566661 191.816669,22.33334 191.45,21 C191.083332,19.66666 190.9,18.300007 190.9,16.9 C190.9,13.899985 191.683326,11.1833455 193.25,8.75 C194.816675,6.3166545 196.93332,4.366674 199.6,2.9 C202.26668,1.433326 205.233317,0.7 208.5,0.7 C211.966684,0.7 214.999987,1.333327 217.6,2.6 C220.200013,3.866673 222.266659,5.699988 223.8,8.1 C225.333341,10.500012 226.1,13.299984 226.1,16.5 C226.1,19.300014 225.366674,21.866655 223.9,24.2 C222.433326,26.533345 220.333347,28.466659 217.6,30 L230.2,40.2 L230.4,39.7 C231.6,36.699985 232.833327,34.1166775 234.1,31.95 C235.366673,29.7833225 236.733326,28.0166735 238.2,26.65 C239.666674,25.2833265 241.433323,24.26667 243.5,23.6 C245.566677,22.93333 248.033319,22.6 250.9,22.6 L258.3,22.6 L258.3,34.1 L252.6,34.1 C250.866658,34.1 249.450006,34.333331 248.35,34.8 C247.249995,35.266669 246.283338,36.033328 245.45,37.1 C244.616663,38.166672 243.833337,39.5499915 243.1,41.25 L242.77755,42.0061244 C242.116325,43.5734724 241.357147,45.4714174 240.5,47.7 L240.2,48.4 L240.8,48.8 L242.095144,49.7920178 C246.765066,53.4001301 250.566652,56.6860963 253.5,59.65 C256.700016,62.8833495 259.01666,65.9499855 260.45,68.85 C261.883341,71.7500145 262.6,74.733318 262.6,77.8 C262.6,80.800015 261.883341,83.499988 260.45,85.9 C259.01666,88.300012 257.033346,90.1833265 254.5,91.55 C251.966654,92.9166735 249.066683,93.6 245.8,93.6 Z M210,59.8 C211.866676,59.8 213.666658,59.533336 215.4,59 C217.133342,58.466664 218.733326,57.633339 220.2,56.5 C221.666674,55.366661 222.966661,53.900009 224.1,52.1 L204.4,36 C203.133327,36.66667 201.933339,37.5166615 200.8,38.55 C199.666661,39.5833385 198.750003,40.8166595 198.05,42.25 C197.349997,43.6833405 197,45.39999 197,47.4 C197,49.666678 197.549994,51.7499905 198.65,53.65 C199.750006,55.5500095 201.283324,57.0499945 203.25,58.15 C205.216677,59.2500055 207.466654,59.8 210,59.8 Z M245.7,83 C246.833339,83 247.783329,82.566671 248.55,81.7 C249.31667,80.833329 249.7,79.666674 249.7,78.2 C249.7,77.333329 249.516668,76.433338 249.15,75.5 C248.783332,74.566662 248.233337,73.733337 247.5,73 C246.299994,73.200001 245.266671,73.5833305 244.4,74.15 C243.533329,74.7166695 242.850002,75.399996 242.35,76.2 C241.849997,77 241.6,77.899995 241.6,78.9 C241.6,80.100006 241.999996,81.0833295 242.8,81.85 C243.6,82.6166705 244.566661,83 245.7,83 Z M208.7,22.9 C207.966663,22.3 207.250003,21.6833365 206.55,21.05 C205.849997,20.4166635 205.283336,19.7500035 204.85,19.05 C204.416665,18.3499965 204.2,17.533338 204.2,16.6 C204.266667,15.8 204.466665,15.0833365 204.8,14.45 C205.133335,13.8166635 205.599997,13.3 206.2,12.9 C206.800003,12.499998 207.533329,12.3 208.4,12.3 C209.666673,12.3 210.666663,12.733329 211.4,13.6 C212.133337,14.466671 212.5,15.499994 212.5,16.7 C212.5,17.36667 212.366668,18.0833295 212.1,18.85 C211.833332,19.6166705 211.41667,20.3499965 210.85,21.05 C210.28333,21.7500035 209.566671,22.366664 208.7,22.9 Z" id="Pen&amp;" fill="#000000"></path>
            <path d="M5.84472656,97.5615234 L5.84472656,105.779297 L9.27246094,105.779297 C10.6396553,105.779297 11.7065391,105.417972 12.4731445,104.695312 C13.2397499,103.972653 13.6230469,102.961921 13.6230469,101.663086 C13.6230469,100.364251 13.2421913,99.3559606 12.4804688,98.6381836 C11.7187462,97.9204066 10.6494209,97.5615234 9.27246094,97.5615234 L5.84472656,97.5615234 Z M2.88574219,95.1298828 L9.27246094,95.1298828 C11.7138794,95.1298828 13.5644468,95.6840765 14.8242188,96.7924805 C16.0839907,97.9008844 16.7138672,99.5244034 16.7138672,101.663086 C16.7138672,103.8213 16.0864321,105.452143 14.831543,106.555664 C13.5766539,107.659185 11.7236451,108.210938 9.27246094,108.210938 L5.84472656,108.210938 L5.84472656,117 L2.88574219,117 L2.88574219,95.1298828 Z M30.8642578,108.75293 L27.4511719,108.75293 C25.8788984,108.75293 24.6948282,109.028806 23.8989258,109.580566 C23.1030234,110.132327 22.7050781,110.955073 22.7050781,112.048828 C22.7050781,113.035161 23.0029267,113.801755 23.5986328,114.348633 C24.1943389,114.895511 25.019526,115.168945 26.0742188,115.168945 C27.5586012,115.168945 28.7255817,114.653814 29.5751953,113.623535 C30.4248089,112.593257 30.8544921,111.169931 30.8642578,109.353516 L30.8642578,108.75293 Z M33.5742188,107.639648 L33.5742188,117 L30.8642578,117 L30.8642578,114.568359 C30.2880831,115.544927 29.5629927,116.265134 28.6889648,116.729004 C27.814937,117.192873 26.7529359,117.424805 25.5029297,117.424805 C23.8329995,117.424805 22.500005,116.953618 21.5039062,116.01123 C20.5078075,115.068843 20.0097656,113.806649 20.0097656,112.224609 C20.0097656,110.398428 20.6225525,109.011723 21.8481445,108.064453 C23.0737366,107.117183 24.873035,106.643555 27.2460938,106.643555 L30.8642578,106.643555 L30.8642578,106.21875 C30.8544921,104.91015 30.5224642,103.960452 29.8681641,103.369629 C29.2138639,102.778806 28.1689525,102.483398 26.7333984,102.483398 C25.8154251,102.483398 24.8877,102.615233 23.9501953,102.878906 C23.0126906,103.142579 22.0996138,103.528318 21.2109375,104.036133 L21.2109375,101.34082 C22.2070362,100.959959 23.1616165,100.674317 24.074707,100.483887 C24.9877975,100.293456 25.8740191,100.198242 26.7333984,100.198242 C28.0908271,100.198242 29.2504835,100.398435 30.2124023,100.798828 C31.1743212,101.199221 31.953122,101.799801 32.5488281,102.600586 C32.9199237,103.08887 33.183593,103.691891 33.3398438,104.409668 C33.4960945,105.127445 33.5742188,106.204094 33.5742188,107.639648 Z M41.6162109,114.93457 L41.6162109,123.240234 L38.90625,123.240234 L38.90625,100.59375 L41.6162109,100.59375 L41.6162109,102.688477 C42.0654319,101.877926 42.6635705,101.260256 43.4106445,100.835449 C44.1577186,100.410642 45.0195264,100.198242 45.9960938,100.198242 C47.9785255,100.198242 49.5336858,100.964836 50.6616211,102.498047 C51.7895564,104.031258 52.3535156,106.15526 52.3535156,108.870117 C52.3535156,111.536146 51.787115,113.62841 50.6542969,115.146973 C49.5214787,116.665535 47.9687599,117.424805 45.9960938,117.424805 C44.999995,117.424805 44.1284217,117.212404 43.3813477,116.787598 C42.6342736,116.362791 42.0459006,115.745121 41.6162109,114.93457 Z M49.5263672,108.811523 C49.5263672,106.721669 49.1967806,105.144537 48.5375977,104.080078 C47.8784147,103.01562 46.8994206,102.483398 45.6005859,102.483398 C44.2919856,102.483398 43.3007846,103.018061 42.6269531,104.087402 C41.9531216,105.156744 41.6162109,106.731435 41.6162109,108.811523 C41.6162109,110.881846 41.9531216,112.454096 42.6269531,113.52832 C43.3007846,114.602544 44.2919856,115.139648 45.6005859,115.139648 C46.8994206,115.139648 47.8784147,114.607427 48.5375977,113.542969 C49.1967806,112.47851 49.5263672,110.901378 49.5263672,108.811523 Z M70.5908203,107.449219 L70.5908203,108.767578 L58.9160156,108.767578 L58.9160156,108.855469 C58.8378902,111.091808 59.2651321,112.698242 60.1977539,113.674805 C61.1303758,114.651372 62.4462806,115.139648 64.1455078,115.139648 C65.0048871,115.139648 65.9033156,115.002931 66.8408203,114.729492 C67.778325,114.456053 68.7792916,114.041018 69.84375,113.484375 L69.84375,116.165039 C68.8183542,116.584963 67.8295946,116.899901 66.8774414,117.109863 C65.9252882,117.319825 65.0048873,117.424805 64.1162109,117.424805 C61.5673701,117.424805 59.5752025,116.660652 58.1396484,115.132324 C56.7040944,113.603996 55.9863281,111.497084 55.9863281,108.811523 C55.9863281,106.194323 56.6894461,104.1045 58.0957031,102.541992 C59.5019602,100.979484 61.3769414,100.198242 63.7207031,100.198242 C65.8105573,100.198242 67.4584901,100.906243 68.6645508,102.322266 C69.8706115,103.738288 70.5126949,105.447256 70.5908203,107.449219 Z M67.8955078,106.658203 C67.7783197,105.525385 67.3657262,104.546391 66.6577148,103.721191 C65.9497035,102.895992 64.9316473,102.483398 63.6035156,102.483398 C62.304681,102.483398 61.2353558,102.913082 60.3955078,103.772461 C59.5556599,104.63184 59.0966801,105.598627 59.0185547,106.672852 L67.8955078,106.658203 Z M89.1650391,103.977539 C88.5888643,103.528318 88.0029327,103.201173 87.4072266,102.996094 C86.8115205,102.791015 86.1572301,102.688477 85.4443359,102.688477 C83.76464,102.688477 82.4804732,103.215815 81.5917969,104.270508 C80.7031206,105.325201 80.2587891,106.848623 80.2587891,108.84082 L80.2587891,117 L77.5488281,117 L77.5488281,100.59375 L80.2587891,100.59375 L80.2587891,103.801758 C80.7080101,102.639643 81.3989211,101.748538 82.331543,101.128418 C83.2641648,100.508298 84.3701108,100.198242 85.6494141,100.198242 C86.3134799,100.198242 86.9335909,100.281249 87.5097656,100.447266 C88.0859404,100.613282 88.6376927,100.872069 89.1650391,101.223633 L89.1650391,103.977539 Z M96.0058594,111.082031 L101.162109,111.082031 L101.162109,117 L96.0058594,117 L96.0058594,111.082031 Z M117.158203,117.292969 L117.158203,102.688477 L112.514648,102.688477 L112.514648,100.59375 L119.853516,100.59375 L119.853516,117.292969 C119.853516,119.197275 119.416508,120.664546 118.54248,121.694824 C117.668453,122.725103 116.425789,123.240234 114.814453,123.240234 L111.09375,123.240234 L111.09375,120.955078 L114.521484,120.955078 C115.400395,120.955078 116.059568,120.649905 116.499023,120.039551 C116.938479,119.429196 117.158203,118.513678 117.158203,117.292969 Z M117.158203,94.2070312 L119.853516,94.2070312 L119.853516,97.6201172 L117.158203,97.6201172 L117.158203,94.2070312 Z M140.683594,101.165039 L140.683594,103.801758 C139.912106,103.352537 139.135746,103.015626 138.354492,102.791016 C137.573238,102.566405 136.777348,102.454102 135.966797,102.454102 C134.746088,102.454102 133.835452,102.651853 133.234863,103.047363 C132.634274,103.442873 132.333984,104.045894 132.333984,104.856445 C132.333984,105.588871 132.558592,106.13574 133.007812,106.49707 C133.430609,106.837146 134.445954,107.168566 136.053875,107.491339 L137.446289,107.756836 C138.784186,108.010743 139.79736,108.518551 140.48584,109.280273 C141.17432,110.041996 141.518555,111.033197 141.518555,112.253906 C141.518555,113.875008 140.942389,115.142085 139.790039,116.055176 C138.63769,116.968266 137.036143,117.424805 134.985352,117.424805 C134.174801,117.424805 133.3252,117.339356 132.436523,117.168457 C131.547847,116.997558 130.585943,116.741213 129.550781,116.399414 L129.550781,113.616211 C130.556646,114.133792 131.51855,114.521971 132.436523,114.780762 C133.354497,115.039552 134.223629,115.168945 135.043945,115.168945 C136.235358,115.168945 137.1582,114.927249 137.8125,114.443848 C138.4668,113.960447 138.793945,113.284184 138.793945,112.415039 C138.793945,111.165033 137.597668,110.300784 135.205078,109.822266 L135.087891,109.792969 L134.077148,109.587891 C132.524406,109.285155 131.391605,108.774906 130.678711,108.057129 C129.965817,107.339352 129.609375,106.360358 129.609375,105.120117 C129.609375,103.547844 130.141596,102.334477 131.206055,101.47998 C132.270513,100.625484 133.789053,100.198242 135.761719,100.198242 C136.640629,100.198242 137.485348,100.278808 138.295898,100.439941 C139.106449,100.601075 139.90234,100.842772 140.683594,101.165039 Z" id="Paper.js" fill="#009DEC"></path>
        </g>
    </g>
</svg>